<mxfile host="app.diagrams.net" modified="2021-05-28T13:22:36.995Z" agent="5.0 (Windows)" etag="OKWX-UeitbeIHKJ5eq0B" version="14.6.13" type="github">
  <diagram id="C5RBs43oDa-KdzZeNtuy" name="Page-1">
    <mxGraphModel dx="1002" dy="683" grid="1" gridSize="10" guides="1" tooltips="1" connect="1" arrows="1" fold="1" page="1" pageScale="1" pageWidth="827" pageHeight="1169" math="0" shadow="0">
      <root>
        <mxCell id="WIyWlLk6GJQsqaUBKTNV-0" />
        <mxCell id="WIyWlLk6GJQsqaUBKTNV-1" parent="WIyWlLk6GJQsqaUBKTNV-0" />
        <mxCell id="gBLnQVbnuJ3zSSm4HvQB-21" value="lib" style="shape=folder;fontStyle=1;spacingTop=10;tabWidth=40;tabHeight=14;tabPosition=left;html=1;fillColor=none;align=left;verticalAlign=top;" vertex="1" parent="WIyWlLk6GJQsqaUBKTNV-1">
          <mxGeometry x="380" y="210" width="440" height="500" as="geometry" />
        </mxCell>
        <mxCell id="gBLnQVbnuJ3zSSm4HvQB-0" value="config.py" style="html=1;fillColor=#f5f5f5;strokeColor=#666666;fontColor=#333333;" vertex="1" parent="WIyWlLk6GJQsqaUBKTNV-1">
          <mxGeometry x="120" y="170" width="110" height="50" as="geometry" />
        </mxCell>
        <mxCell id="gBLnQVbnuJ3zSSm4HvQB-20" style="edgeStyle=orthogonalEdgeStyle;rounded=0;orthogonalLoop=1;jettySize=auto;html=1;exitX=0.5;exitY=0;exitDx=0;exitDy=0;entryX=0.5;entryY=1;entryDx=0;entryDy=0;endArrow=classic;endFill=1;dashed=1;" edge="1" parent="WIyWlLk6GJQsqaUBKTNV-1" source="gBLnQVbnuJ3zSSm4HvQB-1" target="gBLnQVbnuJ3zSSm4HvQB-0">
          <mxGeometry relative="1" as="geometry" />
        </mxCell>
        <mxCell id="gBLnQVbnuJ3zSSm4HvQB-29" value="&amp;lt;&amp;lt;imports&amp;gt;&amp;gt;" style="edgeLabel;html=1;align=center;verticalAlign=middle;resizable=0;points=[];fontSize=9;" vertex="1" connectable="0" parent="gBLnQVbnuJ3zSSm4HvQB-20">
          <mxGeometry x="-0.3071" y="-1" relative="1" as="geometry">
            <mxPoint as="offset" />
          </mxGeometry>
        </mxCell>
        <mxCell id="gBLnQVbnuJ3zSSm4HvQB-30" style="edgeStyle=orthogonalEdgeStyle;rounded=0;orthogonalLoop=1;jettySize=auto;html=1;exitX=0.5;exitY=1;exitDx=0;exitDy=0;entryX=0;entryY=0;entryDx=0;entryDy=257;entryPerimeter=0;dashed=1;fontSize=9;endArrow=classic;endFill=1;" edge="1" parent="WIyWlLk6GJQsqaUBKTNV-1" source="gBLnQVbnuJ3zSSm4HvQB-1" target="gBLnQVbnuJ3zSSm4HvQB-21">
          <mxGeometry relative="1" as="geometry" />
        </mxCell>
        <mxCell id="gBLnQVbnuJ3zSSm4HvQB-33" value="&amp;lt;&amp;lt;imports&amp;gt;&amp;gt;" style="edgeLabel;html=1;align=center;verticalAlign=middle;resizable=0;points=[];fontSize=9;" vertex="1" connectable="0" parent="gBLnQVbnuJ3zSSm4HvQB-30">
          <mxGeometry x="-0.0783" y="2" relative="1" as="geometry">
            <mxPoint as="offset" />
          </mxGeometry>
        </mxCell>
        <mxCell id="gBLnQVbnuJ3zSSm4HvQB-34" style="edgeStyle=orthogonalEdgeStyle;rounded=0;orthogonalLoop=1;jettySize=auto;html=1;exitX=0.5;exitY=0;exitDx=0;exitDy=0;entryX=0;entryY=0.5;entryDx=0;entryDy=0;dashed=1;fontSize=9;endArrow=classic;endFill=1;" edge="1" parent="WIyWlLk6GJQsqaUBKTNV-1" source="gBLnQVbnuJ3zSSm4HvQB-1" target="gBLnQVbnuJ3zSSm4HvQB-5">
          <mxGeometry relative="1" as="geometry" />
        </mxCell>
        <mxCell id="gBLnQVbnuJ3zSSm4HvQB-35" value="&amp;lt;&amp;lt;imports&amp;gt;&amp;gt;" style="edgeLabel;html=1;align=center;verticalAlign=middle;resizable=0;points=[];fontSize=9;" vertex="1" connectable="0" parent="gBLnQVbnuJ3zSSm4HvQB-34">
          <mxGeometry x="-0.1267" y="-4" relative="1" as="geometry">
            <mxPoint as="offset" />
          </mxGeometry>
        </mxCell>
        <mxCell id="gBLnQVbnuJ3zSSm4HvQB-1" value="sanelib.py" style="html=1;" vertex="1" parent="WIyWlLk6GJQsqaUBKTNV-1">
          <mxGeometry x="230" y="300" width="110" height="50" as="geometry" />
        </mxCell>
        <mxCell id="gBLnQVbnuJ3zSSm4HvQB-19" style="edgeStyle=orthogonalEdgeStyle;rounded=0;orthogonalLoop=1;jettySize=auto;html=1;exitX=1;exitY=0.5;exitDx=0;exitDy=0;entryX=0;entryY=0.5;entryDx=0;entryDy=0;endArrow=classic;endFill=1;dashed=1;" edge="1" parent="WIyWlLk6GJQsqaUBKTNV-1" source="gBLnQVbnuJ3zSSm4HvQB-2" target="gBLnQVbnuJ3zSSm4HvQB-1">
          <mxGeometry relative="1" as="geometry" />
        </mxCell>
        <mxCell id="gBLnQVbnuJ3zSSm4HvQB-28" value="&amp;lt;&amp;lt;imports&amp;gt;&amp;gt;" style="edgeLabel;html=1;align=center;verticalAlign=middle;resizable=0;points=[];fontSize=9;" vertex="1" connectable="0" parent="gBLnQVbnuJ3zSSm4HvQB-19">
          <mxGeometry x="-0.24" relative="1" as="geometry">
            <mxPoint as="offset" />
          </mxGeometry>
        </mxCell>
        <mxCell id="gBLnQVbnuJ3zSSm4HvQB-2" value="main.py" style="html=1;" vertex="1" parent="WIyWlLk6GJQsqaUBKTNV-1">
          <mxGeometry x="10" y="300" width="110" height="50" as="geometry" />
        </mxCell>
        <mxCell id="gBLnQVbnuJ3zSSm4HvQB-3" value="config_example.py" style="html=1;" vertex="1" parent="WIyWlLk6GJQsqaUBKTNV-1">
          <mxGeometry x="120" y="90" width="110" height="50" as="geometry" />
        </mxCell>
        <mxCell id="gBLnQVbnuJ3zSSm4HvQB-4" value="util" style="html=1;fillColor=none;align=left;verticalAlign=top;" vertex="1" parent="WIyWlLk6GJQsqaUBKTNV-1">
          <mxGeometry x="380" y="20" width="306" height="160" as="geometry" />
        </mxCell>
        <mxCell id="gBLnQVbnuJ3zSSm4HvQB-5" value="database.py" style="html=1;" vertex="1" parent="WIyWlLk6GJQsqaUBKTNV-1">
          <mxGeometry x="426" y="45" width="110" height="50" as="geometry" />
        </mxCell>
        <mxCell id="gBLnQVbnuJ3zSSm4HvQB-6" value="log_handler.py" style="html=1;" vertex="1" parent="WIyWlLk6GJQsqaUBKTNV-1">
          <mxGeometry x="556" y="45" width="110" height="50" as="geometry" />
        </mxCell>
        <mxCell id="gBLnQVbnuJ3zSSm4HvQB-7" value="timer.py" style="html=1;" vertex="1" parent="WIyWlLk6GJQsqaUBKTNV-1">
          <mxGeometry x="426" y="115" width="110" height="50" as="geometry" />
        </mxCell>
        <mxCell id="gBLnQVbnuJ3zSSm4HvQB-13" value="DecisionTreeClassifier.py" style="html=1;" vertex="1" parent="WIyWlLk6GJQsqaUBKTNV-1">
          <mxGeometry x="426" y="280" width="150" height="50" as="geometry" />
        </mxCell>
        <mxCell id="gBLnQVbnuJ3zSSm4HvQB-14" value="example.py" style="html=1;" vertex="1" parent="WIyWlLk6GJQsqaUBKTNV-1">
          <mxGeometry x="426" y="350" width="110" height="50" as="geometry" />
        </mxCell>
        <mxCell id="gBLnQVbnuJ3zSSm4HvQB-15" value="tree.py" style="html=1;" vertex="1" parent="WIyWlLk6GJQsqaUBKTNV-1">
          <mxGeometry x="596" y="280" width="110" height="50" as="geometry" />
        </mxCell>
        <mxCell id="gBLnQVbnuJ3zSSm4HvQB-16" value="sqlTemplates_mssql.py" style="html=1;" vertex="1" parent="WIyWlLk6GJQsqaUBKTNV-1">
          <mxGeometry x="426" y="420" width="150" height="50" as="geometry" />
        </mxCell>
        <mxCell id="gBLnQVbnuJ3zSSm4HvQB-17" value="sqlTemplates_mssql.py" style="html=1;" vertex="1" parent="WIyWlLk6GJQsqaUBKTNV-1">
          <mxGeometry x="596" y="350" width="150" height="50" as="geometry" />
        </mxCell>
        <mxCell id="gBLnQVbnuJ3zSSm4HvQB-18" value="sqlTemplates_sqlite.py" style="html=1;" vertex="1" parent="WIyWlLk6GJQsqaUBKTNV-1">
          <mxGeometry x="596" y="420" width="150" height="50" as="geometry" />
        </mxCell>
        <mxCell id="gBLnQVbnuJ3zSSm4HvQB-22" value="dtc" style="shape=folder;fontStyle=1;spacingTop=10;tabWidth=40;tabHeight=14;tabPosition=left;html=1;fillColor=none;align=left;verticalAlign=top;" vertex="1" parent="WIyWlLk6GJQsqaUBKTNV-1">
          <mxGeometry x="406" y="240" width="364" height="250" as="geometry" />
        </mxCell>
        <mxCell id="gBLnQVbnuJ3zSSm4HvQB-23" value="mdh" style="shape=folder;fontStyle=1;spacingTop=10;tabWidth=40;tabHeight=14;tabPosition=left;html=1;align=center;labelPosition=center;verticalLabelPosition=middle;verticalAlign=middle;labelBackgroundColor=#ffffff;" vertex="1" parent="WIyWlLk6GJQsqaUBKTNV-1">
          <mxGeometry x="406" y="510" width="70" height="50" as="geometry" />
        </mxCell>
        <mxCell id="gBLnQVbnuJ3zSSm4HvQB-24" value="kmeans" style="shape=folder;fontStyle=1;spacingTop=10;tabWidth=40;tabHeight=14;tabPosition=left;html=1;align=center;labelPosition=center;verticalLabelPosition=middle;verticalAlign=middle;labelBackgroundColor=#ffffff;" vertex="1" parent="WIyWlLk6GJQsqaUBKTNV-1">
          <mxGeometry x="406" y="570" width="70" height="50" as="geometry" />
        </mxCell>
        <mxCell id="gBLnQVbnuJ3zSSm4HvQB-25" value="linear_regression" style="shape=folder;fontStyle=1;spacingTop=10;tabWidth=40;tabHeight=14;tabPosition=left;html=1;align=center;labelPosition=center;verticalLabelPosition=middle;verticalAlign=middle;labelBackgroundColor=#ffffff;" vertex="1" parent="WIyWlLk6GJQsqaUBKTNV-1">
          <mxGeometry x="406" y="630" width="124" height="50" as="geometry" />
        </mxCell>
      </root>
    </mxGraphModel>
  </diagram>
</mxfile>
